<?xml version="1.0" standalone="no"?>
<!DOCTYPE svg PUBLIC "-//W3C//DTD SVG 20010904//EN"
 "http://www.w3.org/TR/2001/REC-SVG-20010904/DTD/svg10.dtd">
<svg version="1.0" xmlns="http://www.w3.org/2000/svg"
 width="1000.000000pt" height="1000.000000pt" viewBox="0 0 1000.000000 1000.000000"
 preserveAspectRatio="xMidYMid meet">

<g transform="translate(0.000000,1000.000000) scale(0.100000,-0.100000)"
fill="#000000" stroke="none">
<path d="M3355 9158 c-51 -18 -79 -32 -111 -55 l-31 -23 -416 0 c-394 0 -534
-7 -579 -31 -10 -5 -26 -9 -35 -9 -23 0 -117 -33 -121 -42 -2 -5 -10 -8 -17
-8 -15 0 -123 -61 -158 -89 -54 -42 -147 -136 -147 -148 0 -7 -4 -13 -9 -13
-10 0 -70 -109 -88 -159 -6 -19 -15 -53 -18 -75 -3 -23 -10 -50 -15 -61 -4
-11 -14 -47 -21 -80 -6 -33 -27 -120 -46 -194 -18 -74 -33 -145 -33 -157 0
-13 -4 -25 -9 -28 -5 -3 -11 -23 -14 -43 -6 -39 -29 -148 -46 -218 -5 -22 -19
-78 -31 -125 -11 -47 -25 -110 -32 -140 -6 -30 -14 -64 -19 -75 -4 -11 -10
-33 -14 -50 -15 -77 -35 -164 -44 -200 -22 -85 -32 -131 -37 -160 -3 -16 -9
-39 -14 -50 -4 -11 -14 -47 -20 -80 -7 -33 -16 -76 -20 -95 -5 -19 -18 -75
-29 -125 -24 -111 -58 -250 -71 -291 -6 -17 -10 -39 -10 -50 0 -11 -6 -28 -13
-37 -11 -16 -46 -18 -407 -20 -439 -2 -432 -1 -504 -73 -50 -50 -69 -98 -69
-175 0 -80 20 -129 73 -179 42 -41 67 -53 133 -70 37 -10 47 -17 47 -34 0 -28
30 -185 41 -211 4 -11 10 -36 12 -55 6 -46 66 -336 78 -376 5 -17 9 -42 9 -57
0 -14 4 -28 9 -31 4 -3 12 -38 16 -78 3 -40 10 -77 15 -83 4 -5 10 -26 13 -45
3 -19 10 -55 15 -80 5 -25 24 -119 42 -210 18 -91 36 -174 41 -185 4 -11 10
-36 13 -55 7 -50 48 -249 66 -330 18 -76 30 -132 43 -210 8 -41 16 -82 20 -90
3 -8 8 -28 11 -45 21 -120 28 -157 42 -213 8 -35 19 -87 25 -115 5 -29 14 -72
19 -97 6 -25 18 -81 26 -125 9 -44 20 -98 24 -120 5 -22 14 -62 19 -90 6 -27
17 -81 26 -120 14 -62 38 -178 67 -315 15 -77 39 -203 45 -243 3 -20 9 -40 14
-43 5 -3 9 -18 9 -34 0 -16 7 -55 15 -88 14 -55 41 -189 52 -257 2 -16 8 -39
13 -50 5 -11 11 -36 13 -55 12 -85 31 -170 38 -170 5 0 9 -7 9 -15 0 -21 90
-110 125 -123 17 -6 42 -13 57 -16 36 -8 7070 -8 7105 0 87 18 157 71 187 139
30 69 35 86 42 154 3 39 11 74 15 77 5 3 9 21 9 40 0 19 4 42 9 52 5 9 14 46
20 82 6 36 20 108 31 160 36 159 40 179 75 355 9 44 21 100 26 125 5 25 14 65
19 90 5 25 14 68 20 95 6 28 18 84 26 125 9 41 20 95 25 120 5 25 16 79 24
120 7 41 23 118 35 170 47 211 70 322 77 370 2 19 8 44 13 55 5 11 11 34 13
50 11 68 37 203 48 245 6 25 15 68 20 95 6 28 14 70 20 95 5 25 15 74 20 110
6 36 14 74 19 85 5 11 11 34 14 50 14 81 37 199 57 285 11 52 23 111 26 130 2
19 8 44 13 55 5 11 11 36 14 55 6 37 31 168 46 235 5 22 15 74 23 115 9 41 22
104 31 140 9 36 16 79 16 97 0 17 4 34 9 37 5 3 11 23 14 43 4 21 12 74 19
118 l13 80 45 13 c78 24 107 41 148 87 43 50 80 161 62 193 -5 9 -12 34 -15
55 -3 20 -10 37 -15 37 -6 0 -10 6 -10 14 0 25 -85 90 -134 104 -33 8 -155 12
-425 12 l-379 0 -9 28 c-11 28 -66 252 -84 337 -5 28 -14 68 -20 90 -9 36 -26
114 -44 200 -4 17 -10 39 -15 50 -5 11 -11 34 -13 50 -3 17 -17 82 -32 145
-53 220 -74 315 -81 355 -3 17 -9 39 -14 50 -4 11 -18 65 -30 120 -12 55 -26
110 -31 123 -5 12 -12 47 -15 78 -4 30 -11 57 -15 60 -5 3 -9 18 -9 35 0 16
-4 37 -9 47 -5 9 -14 44 -21 77 -12 60 -21 98 -41 178 -6 23 -13 59 -16 80 -3
20 -9 40 -14 43 -5 3 -9 17 -9 31 0 76 -56 228 -118 322 -36 54 -148 171 -164
171 -5 0 -17 8 -28 18 -40 37 -230 122 -273 122 -13 0 -27 4 -32 9 -20 19
-113 23 -550 28 -446 4 -449 4 -480 26 -34 25 -63 39 -115 55 -48 15 -3232 15
-3275 0z m-109 -538 c92 -64 -29 -60 1750 -60 1579 0 1625 1 1674 19 28 11 66
31 85 45 l34 26 418 -3 c441 -4 489 -8 577 -51 122 -60 172 -137 192 -293 3
-29 10 -56 15 -59 5 -3 9 -20 9 -38 0 -18 3 -36 7 -40 5 -4 14 -38 21 -74 17
-91 39 -185 62 -267 6 -22 17 -69 25 -105 7 -36 18 -83 24 -105 5 -22 16 -69
25 -105 8 -36 24 -105 36 -155 11 -49 24 -107 27 -128 3 -21 10 -40 14 -43 5
-3 9 -20 9 -39 0 -19 4 -36 9 -40 5 -3 13 -34 16 -70 4 -36 11 -68 16 -71 5
-3 9 -18 9 -35 0 -16 4 -37 9 -47 5 -9 21 -73 36 -142 15 -69 31 -135 36 -148
5 -13 9 -36 9 -52 0 -16 4 -31 9 -34 5 -3 11 -23 14 -43 3 -21 13 -69 22 -108
9 -38 19 -82 22 -97 l5 -28 -563 -1 c-310 -1 -600 -2 -644 -1 -44 0 -1351 1
-2904 1 l-2823 1 6 28 c4 15 11 45 17 67 6 22 15 65 20 95 5 30 14 63 19 72 6
10 10 31 10 47 0 17 5 33 10 36 6 3 10 15 10 26 0 17 49 236 80 359 24 93 40
168 40 188 0 11 4 23 9 26 5 3 11 20 14 38 3 18 10 51 15 73 21 85 34 142 43
195 5 30 14 63 19 72 6 10 10 28 10 40 0 12 4 35 10 52 5 17 19 72 30 121 12
50 26 108 31 130 6 22 14 58 19 80 5 22 13 58 19 80 5 22 15 67 21 100 7 33
16 69 21 80 4 11 10 34 14 50 34 168 44 192 97 245 42 43 136 89 198 99 28 4
53 11 57 15 3 3 193 6 420 6 l414 0 45 -30z m1902 -2899 l632 -1 0 -520 0
-520 -782 3 -783 2 -3 517 -2 517 77 3 c43 2 112 2 153 1 41 -1 360 -2 708 -2z
m2132 1 l435 -2 -2 -510 c-1 -280 -4 -514 -8 -520 -4 -7 -265 -10 -780 -10
-723 0 -775 2 -784 18 -5 10 -8 234 -7 517 l1 500 205 5 c113 3 273 5 355 4
83 0 346 -1 585 -2z m-5350 -523 l0 -520 -412 2 c-231 0 -421 5 -430 10 -13 7
-18 22 -18 49 0 21 -4 42 -10 45 -5 3 -10 21 -10 39 0 18 -3 36 -7 40 -5 4
-13 42 -20 84 -6 42 -16 97 -22 122 -12 54 -15 70 -47 230 -14 69 -30 139 -35
156 -5 17 -9 42 -9 57 0 14 -4 29 -10 32 -5 3 -10 21 -10 38 0 18 -6 56 -14
85 l-13 52 533 0 534 0 0 -521z m1933 10 c-1 -392 -4 -514 -14 -519 -16 -11
-1541 -7 -1556 3 -10 6 -13 121 -13 518 l0 509 793 0 792 0 -2 -511z m5259
474 c-2 -21 -7 -47 -12 -58 -5 -11 -11 -33 -14 -50 -13 -77 -36 -188 -55 -275
-12 -52 -24 -113 -27 -135 -3 -22 -9 -49 -14 -60 -5 -11 -12 -38 -15 -60 -4
-22 -13 -71 -19 -110 -7 -38 -15 -77 -18 -85 -6 -14 -10 -33 -25 -118 -3 -18
-13 -37 -22 -42 -20 -10 -776 -14 -816 -4 l-25 6 0 514 0 514 533 0 533 0 -4
-37z m-7192 -1933 l0 -590 -269 0 -268 0 -6 43 c-8 49 -22 123 -38 187 -6 25
-16 77 -22 117 -7 39 -15 75 -19 79 -5 4 -8 24 -8 45 0 21 -4 41 -10 44 -5 3
-10 18 -10 33 0 15 -10 70 -21 122 -12 52 -26 118 -31 145 -5 28 -14 68 -19
90 -16 75 -40 200 -46 238 l-5 37 386 0 386 0 0 -590z m1930 0 l0 -590 -790 0
-790 0 0 590 0 590 790 0 790 0 0 -590z m1920 0 l0 -590 -785 0 -785 0 0 590
0 590 785 0 785 0 0 -590z m1933 -2 l2 -588 -782 0 c-431 0 -786 -1 -790 -2
-9 -3 -17 1148 -8 1169 3 11 159 13 791 11 l786 -3 1 -587z m1116 560 c0 -35
-11 -93 -29 -168 -6 -25 -15 -65 -20 -90 -5 -25 -13 -65 -18 -90 -5 -25 -20
-97 -32 -160 -12 -63 -26 -124 -30 -135 -5 -11 -11 -36 -14 -55 -6 -46 -30
-163 -56 -280 -11 -52 -23 -112 -27 -132 l-6 -38 -268 0 -269 0 0 590 0 590
385 0 385 0 -1 -32z m-6899 -2023 l0 -515 -119 0 c-105 0 -120 2 -125 18 -3 9
-18 80 -35 157 -39 188 -41 194 -51 240 -5 22 -16 78 -25 125 -9 47 -20 103
-25 125 -5 22 -16 77 -24 121 -9 45 -20 93 -25 106 -5 13 -12 50 -16 81 l-7
57 226 0 226 0 0 -515z m1930 0 l0 -510 -790 -3 -790 -2 0 515 0 515 790 -2
790 -3 0 -510z m1920 -1 l0 -514 -785 0 -785 0 0 515 0 515 785 0 785 -1 0
-515z m1931 1 l0 -510 -788 0 -788 0 -2 500 c-1 275 0 506 2 513 4 10 167 12
790 10 l786 -3 0 -510z m809 512 c0 -2 -12 -56 -41 -192 -30 -135 -59 -284
-66 -335 -2 -19 -8 -44 -13 -55 -5 -11 -11 -36 -14 -55 -3 -19 -15 -78 -26
-130 -12 -52 -27 -127 -34 -166 -7 -39 -16 -77 -20 -83 -5 -7 -49 -11 -127
-11 l-119 0 0 515 0 515 230 0 c127 0 230 -1 230 -3z"/>
</g>
</svg>
